<?xml version="1.0" encoding="utf-8" standalone="yes"?>
<!DOCTYPE svg PUBLIC "-//W3C//DTD SVG 1.1//EN" "http://www.w3.org/Graphics/SVG/1.1/DTD/svg11.dtd">
<svg style="fill:none;stroke:none;fill-rule:evenodd;clip-rule:evenodd;stroke-linecap:round;stroke-linejoin:round;stroke-miterlimit:1.5;" version="1.1" xmlns="http://www.w3.org/2000/svg" xmlns:xlink="http://www.w3.org/1999/xlink" width="613" height="606" viewBox="0 0 613 606"><style class="text-font-style fontImports" data-font-family="Roboto">@import url(https://fonts.googleapis.com/css2?family=Roboto:wght@400;700&amp;amp;display=block);</style><style class="text-font-style fontImports" data-font-family="Source Code Pro">@import url(https://fonts.googleapis.com/css2?family=Source+Code+Pro:wght@400;700&amp;amp;display=block);</style><rect id="" x="0" y="0" width="612" height="605.997" style="fill: #2c2c2c;"></rect><g id="items" style="isolation: isolate"><g id="blend" style="mix-blend-mode: normal"><g id="g-root-tf_vahoxel66qkm-fill" data-item-order="7999443695"><g id="tf_vahoxel66qkm-fill-merged" stroke="none" fill="#2c2c2c" fill-opacity="1"><g><path d="M0 0 H612 V606 H0 V0"></path></g></g></g><g id="g-root-tf_vahoxel66qkm-stroke" data-item-order="7999443695"></g><g id="g-root-tx_vahoxel66qko-fill" data-item-order="8000000000" transform="translate(319.59002685546875, 97.1402587890625)"><g id="tx_vahoxel66qko-fill-merged" stroke="none" fill="#f4f4f4" fill-opacity="1"><g><text style="font: 12px &quot;Source Code Pro&quot;, monospace; white-space: pre;" transform="translate(10, 25.4295654296875)" font-size="12px" font-family="'Source Code Pro', monospace"><tspan x="2" y="0.67" dominant-baseline="ideographic">Rule-Based Index </tspan><tspan x="2" y="14.67" dominant-baseline="ideographic">Execution</tspan></text></g></g></g><g id="g-root-tx_vahoxel66qko-stroke" data-item-order="8000000000" transform="translate(319.59002685546875, 97.1402587890625)"></g><g id="g-root-tx_quo6syl66rcx-fill" data-item-order="8000000000" transform="translate(469.0400390625, 80.333251953125)"><g id="tx_quo6syl66rcx-fill-merged" stroke="none" fill="#f4f4f4" fill-opacity="1"><g><text style="font: 12px &quot;Source Code Pro&quot;, monospace; white-space: pre;" transform="translate(10, 33.666748046875)" font-size="12px" font-family="'Source Code Pro', monospace"><tspan x="2" y="0.67" dominant-baseline="ideographic">On-chain </tspan><tspan x="2" y="14.67" dominant-baseline="ideographic">Assets</tspan></text></g></g></g><g id="g-root-tx_quo6syl66rcx-stroke" data-item-order="8000000000" transform="translate(469.0400390625, 80.333251953125)"></g><g id="g-root-ic_meda_quo6syl66rcy-fill" data-item-order="8000000000" transform="translate(207.11004638671875, 131.8399658203125)"></g><g id="g-root-ic_meda_quo6syl66rcy-stroke" data-item-order="8000000000" transform="translate(207.11004638671875, 131.8399658203125)"><g id="ic_meda_quo6syl66rcy-stroke" fill="none" stroke-linecap="round" stroke-linejoin="round" stroke-miterlimit="4" stroke="#a6da37" stroke-width="2" stroke-opacity="0.9"><g><path d="M 53.3353 93.465523L 85.023476 93.465523C 87.997726 93.465523 90.408348 91.054535 90.408348 88.08065L 90.408348 39.153702C 90.408348 37.726528 89.841507 36.357872 88.832382 35.348389L 67.752403 14.268409C 66.742912 13.259578 65.374443 12.692741 63.94709 12.692436L 25.790026 12.692436C 22.857065 12.692436 20.405153 15.144348 20.405153 18.077309L 20.405153 36.502441M 90.408348 39.616798L 68.868858 39.616798C 67.440796 39.616798 66.071243 39.04945 65.061401 38.039604C 64.051559 37.029762 63.48399 35.660065 63.48399 34.231926L 63.48399 12.692436M 30.354818 74.464104C 38.426838 74.464989 44.970974 67.921585 44.970974 59.849564C 44.970974 51.777542 38.426838 45.234127 30.354818 45.23502C 22.282801 45.234127 15.738667 51.777542 15.738667 59.849564C 15.738667 67.921585 22.282801 74.464989 30.354818 74.464104M 19.24123 69.359962L 19.24123 93.456909L 30.367455 86.351753L 41.493679 93.456909L 41.493679 69.359962"></path></g></g></g><g id="g-root-ic_brai_quo6syl66rcz-fill" data-item-order="8000000000" transform="translate(350.00006103515625, 134)"></g><g id="g-root-ic_brai_quo6syl66rcz-stroke" data-item-order="8000000000" transform="translate(350.00006103515625, 134)"><g id="ic_brai_quo6syl66rcz-stroke" fill="none" stroke-linecap="round" stroke-linejoin="round" stroke-miterlimit="4" stroke="#efd80d" stroke-width="2" stroke-opacity="1"><g><path d="M 36.484001 10.7515L 36.484001 16.751499M 39.484001 13.7515L 33.484001 13.7515M 40.490501 19.001499L 44.734001 23.244999M 44.734001 19.001499L 40.490501 23.244999M 32.734001 22.745499L 26.734001 22.745499M 29.734001 19.370501C 29.526894 19.370501 29.359001 19.538393 29.359001 19.745501M 30.109001 19.75C 30.109001 19.542892 29.941107 19.375 29.734001 19.375M 29.734001 20.120501C 29.941107 20.120501 30.109001 19.952606 30.109001 19.745501M 29.359001 19.75C 29.359001 19.957108 29.526894 20.125 29.734001 20.125M 29.734001 25.370499C 29.526894 25.370499 29.359001 25.538393 29.359001 25.745499M 30.109001 25.75C 30.109001 25.542892 29.941107 25.375 29.734001 25.375M 29.734001 26.120499C 29.941107 26.120499 30.109001 25.952606 30.109001 25.745499M 29.359001 25.75C 29.359001 25.957108 29.526894 26.125 29.734001 26.125M 21.484001 13.0015L 22.984001 15.2515L 24.484001 10.7515L 29.734001 10.7515M 20.276501 45.25L 20.276501 41.5345L 18.898001 41.5345C 16.844814 41.535332 15.180171 39.870689 15.181 37.817501L 15.181 34.100498L 12.0145 34.100498C 11.775373 34.099537 11.55104 33.984604 11.410568 33.791084C 11.270096 33.597565 11.230325 33.348656 11.3035 33.120998C 12.9535 28 14.3035 22.637501 17.7325 19.4995M 37.624001 28.834C 37.624901 32.685329 35.785408 36.305229 32.674004 38.575001L 32.674 45.25"></path></g></g></g><g id="g-root-ic_coin_quo6syl66rd0-fill" data-item-order="8000000000" transform="translate(465.00006103515625, 125.31982421875)"></g><g id="g-root-ic_coin_quo6syl66rd0-stroke" data-item-order="8000000000" transform="translate(465.00006103515625, 125.31982421875)"><g id="ic_coin_quo6syl66rd0-stroke" fill="none" stroke-linecap="round" stroke-linejoin="round" stroke-miterlimit="4" stroke="#4e88e6" stroke-width="2" stroke-opacity="1"><g><path d="M 12.055908 20.279541C 12.05591 24.821327 25.862831 28.503174 42.894531 28.503174C 59.926231 28.503174 73.733154 24.821327 73.733154 20.279541C 73.733154 15.737754 59.926231 12.055908 42.894531 12.055908C 25.862831 12.055908 12.05591 15.737754 12.05591 20.279541M 12.055908 36.726807L 12.055908 20.279541M 73.733154 20.279541L 73.733154 44.950439M 73.733154 36.726807C 73.733154 41.290924 59.917454 44.950439 42.894531 44.950439C 25.871611 44.950439 12.055908 41.290924 12.055908 36.726807M 51.118164 61.109879C 31.545918 62.549011 12.055908 58.642788 12.055908 53.174072L 12.055908 36.726807M 12.055908 53.174072L 12.055908 86.068604C 12.055908 88.782402 18.758169 94.292236 44.950439 94.292236M 44.950439 77.844971C 27.310747 78.132797 12.055908 74.432167 12.055908 69.621338M 57.285889 81.956787C 57.285892 95.582153 68.331429 106.627686 81.956787 106.627686C 95.582153 106.627686 106.627686 95.582153 106.627686 81.956787C 106.627686 68.331429 95.582153 57.285892 81.956787 57.285892C 68.331429 57.285892 57.285892 68.331429 57.285892 81.956787M 77.803848 65.509521L 77.803848 69.621338M 86.027481 65.509521L 86.027481 69.621338M 77.803848 94.292236L 77.803848 98.404053M 86.027481 94.292236L 86.027481 98.404053M 92.236328 75.789063C 92.236328 79.195404 89.474945 81.956787 86.068604 81.956787L 73.733154 81.956787L 73.733154 69.621338L 86.068604 69.621338C 89.474945 69.621338 92.236328 72.382729 92.236328 75.789063ZM 92.236328 88.124512C 92.236328 91.530853 89.474945 94.292236 86.068604 94.292236L 73.733154 94.292236L 73.733154 81.956787L 86.068604 81.956787C 89.474945 81.956787 92.236328 84.718178 92.236328 88.124512Z"></path></g></g></g><g id="g-root-ic_stac_quo6syl66rd2-fill" data-item-order="8000000000" transform="translate(116.19003295898438, 162.47021484375)"></g><g id="g-root-ic_stac_quo6syl66rd2-stroke" data-item-order="8000000000" transform="translate(116.19003295898438, 162.47021484375)"><g id="ic_stac_quo6syl66rd2-stroke" fill="none" stroke-linecap="round" stroke-linejoin="round" stroke-miterlimit="4" stroke="#efd80d" stroke-width="2" stroke-opacity="1"><g><path d="M 28.434828 26.417786L 26.230154 11.673051C 26.192051 11.449388 26.255039 11.220341 26.402149 11.047611C 26.55455 10.880136 26.769886 10.783801 26.996315 10.781799L 37.816422 10.781799M 32.343826 29.544983L 30.874043 14.768976C 30.849001 14.548454 30.916996 14.327473 31.061672 14.159172C 31.213034 14.001384 31.421566 13.911207 31.640203 13.908997L 43.945724 13.908997C 44.173004 13.907019 44.389893 14.004047 44.539894 14.174809C 44.687004 14.347538 44.749992 14.576585 44.711891 14.800248L 42.507217 29.544983M 41.725418 45.180969L 28.559916 45.180969C 27.960863 45.180908 27.367023 45.292252 26.808683 45.509323L 23.681488 46.744568M 28.434828 29.544983L 43.289017 29.544983L 44.274082 31.030401C 44.617729 31.552225 44.617729 32.228535 44.274082 32.750359L 43.789368 33.485252C 43.480457 33.952084 43.444679 34.548431 43.695549 35.048851L 44.508621 36.61245C 44.731636 37.055019 44.731636 37.577118 44.508621 38.019688L 43.586098 39.864735C 43.399139 40.232918 43.365414 40.66011 43.492283 41.05307L 43.758095 41.866138C 43.931122 42.416656 43.786869 43.017719 43.382832 43.429737L 41.725418 45.180969M 12.798841 37.362976L 18.052532 35.392841C 18.697285 35.14341 19.245235 34.694092 19.616131 34.110691L 24.776007 25.729803C 25.126938 25.152634 25.602386 24.66116 26.16761 24.291292L 27.934477 23.102957M 35.846287 22.117889C 35.846287 23.197329 36.721344 24.072388 37.800785 24.072388C 38.880222 24.072388 39.755283 23.197329 39.755283 22.117889C 39.755283 21.03845 38.880222 20.163391 37.800785 20.163391C 36.721344 20.163391 35.846287 21.03845 35.846287 22.117889"></path></g></g></g><g id="g-root-tx_quo6syl66rd3-fill" data-item-order="8000000000" transform="translate(122.23004150390625, 134.333251953125)"><g id="tx_quo6syl66rd3-fill-merged" stroke="none" fill="#f4f4f4" fill-opacity="1"><g><text style="font: bold 12px &quot;Source Code Pro&quot;, monospace; white-space: pre;" transform="translate(10, 26.666748046875)" font-weight="bold" font-size="12px" font-family="'Source Code Pro', monospace"><tspan x="2" y="7" dominant-baseline="ideographic">Funds</tspan></text></g></g></g><g id="g-root-tx_quo6syl66rd3-stroke" data-item-order="8000000000" transform="translate(122.23004150390625, 134.333251953125)"></g><g id="g-root-ic_exch_vahoxel66s5j-fill" data-item-order="8000000000" transform="translate(470.11993408203125, 446.669921875)"></g><g id="g-root-ic_exch_vahoxel66s5j-stroke" data-item-order="8000000000" transform="translate(470.11993408203125, 446.669921875)"><g id="ic_exch_vahoxel66s5j-stroke" fill="none" stroke-linecap="round" stroke-linejoin="round" stroke-miterlimit="4" stroke="#4e88e6" stroke-width="2" stroke-opacity="1"><g><path d="M 64.576637 33.176369C 64.576637 36.892483 67.589142 39.904991 71.30526 39.904991C 75.021378 39.904991 78.033882 36.892483 78.033882 33.176369C 78.033882 29.460253 75.021378 26.447744 71.30526 26.447744C 67.589142 26.447744 64.576637 29.460253 64.576637 33.176369M 71.30526 42.895489C 66.350441 42.895489 62.333763 46.912167 62.333763 51.866985L 62.333763 59.343235L 66.819511 59.343235L 68.314758 72.800476L 74.295761 72.800476L 75.791008 59.343235L 80.276756 59.343235L 80.276756 51.866985C 80.276756 46.912167 76.260078 42.895489 71.30526 42.895489ZM 13.738158 33.176369C 13.738158 36.892483 16.750664 39.904991 20.46678 39.904991C 24.182896 39.904991 27.195402 36.892483 27.195402 33.176369C 27.195402 29.460253 24.182896 26.447744 20.46678 26.447744C 16.750664 26.447744 13.738158 29.460253 13.738158 33.176369M 20.46678 42.895489C 15.511959 42.895489 11.495284 46.912167 11.495284 51.866985L 11.495284 59.343235L 15.981031 59.343235L 17.476282 72.800476L 23.457279 72.800476L 24.952528 59.343235L 29.438276 59.343235L 29.438276 51.866985C 29.438278 46.912167 25.421602 42.895489 20.46678 42.895489ZM 44.39077 11.49525L 50.371769 17.476248L 44.39077 23.457245M 36.914524 17.476248L 50.371769 17.476248M 44.39077 68.314728L 38.409771 74.295731L 44.39077 80.276726M 51.867016 74.295731L 38.409771 74.295731M 39.247112 51.209076C 39.345383 54.024384 41.689957 56.236885 44.506229 56.171936C 47.322506 56.106987 49.562592 53.788757 49.530972 50.971909C 49.499352 48.155064 47.207794 45.887703 44.39077 45.885986C 42.220226 45.959164 40.222885 44.706398 39.343845 42.720474C 38.464806 40.734554 38.880363 38.413754 40.393883 36.856236C 41.907402 35.298717 44.215343 34.816849 46.225636 35.638634C 48.235924 36.460423 49.545395 38.421059 49.534428 40.592804M 44.39077 30.933493L 44.39077 35.269714M 44.39077 56.532166L 44.39077 60.838482"></path></g></g></g><g id="g-root-ic_down_vahoxel66s5i-fill" data-item-order="8000000000" transform="translate(403.94732666015625, 436.9984130859375)"></g><g id="g-root-ic_down_vahoxel66s5i-stroke" data-item-order="8000000000" transform="translate(403.94732666015625, 436.9984130859375)"><g id="ic_down_vahoxel66s5i-stroke" fill="none" stroke-linecap="round" stroke-linejoin="round" stroke-miterlimit="4" stroke="#efd80d" stroke-width="2" stroke-opacity="1"><g><path d="M 10 10M 24.375 35.625L 28.125 39.375L 31.875 35.625M 10 10M 28.125 39.375L 28.125 28.125M 10 10M 31.875 31.875L 35.625 28.125L 39.375 31.875M 10 10M 35.625 28.125L 35.625 39.375M 14.0625 15.9375C 14.0625 18.871513 16.440987 21.25 19.375 21.25C 22.309013 21.25 24.6875 18.871513 24.6875 15.9375C 24.6875 13.003488 22.309013 10.625 19.375 10.625C 16.440987 10.625 14.0625 13.003488 14.0625 15.9375ZM 24.375 31.875L 10.625 31.875C 10.624952 28.474312 12.595269 25.381618 15.677395 23.944544C 18.759521 22.507469 22.395121 22.986343 25.000002 25.172501"></path></g></g></g><g id="g-root-tx_quo6syl66rd1-fill" data-item-order="8000000000" transform="translate(19.94732666015625, 167.3017578125)"><g id="tx_quo6syl66rd1-fill-merged" stroke="none" fill="#f4f4f4" fill-opacity="1"><g><text style="font: 12px &quot;Source Code Pro&quot;, monospace; white-space: pre;" transform="translate(10, 33.666748046875)" font-size="12px" font-family="'Source Code Pro', monospace"><tspan x="2" y="7.67" dominant-baseline="ideographic">Investor</tspan></text></g></g></g><g id="g-root-tx_quo6syl66rd1-stroke" data-item-order="8000000000" transform="translate(19.94732666015625, 167.3017578125)"></g><g id="g-root-tx_vahoxel66s5h-fill" data-item-order="8000000000" transform="translate(205.0400390625, 413.333251953125)"><g id="tx_vahoxel66s5h-fill-merged" stroke="none" fill="#f4f4f4" fill-opacity="1"><g><text style="font: 12px &quot;Source Code Pro&quot;, monospace; white-space: pre;" transform="translate(10, 33.666748046875)" font-size="12px" font-family="'Source Code Pro', monospace"><tspan x="2" y="0.67" dominant-baseline="ideographic">Self-managed </tspan><tspan x="2" y="14.67" dominant-baseline="ideographic">gardens</tspan></text></g></g></g><g id="g-root-tx_vahoxel66s5h-stroke" data-item-order="8000000000" transform="translate(205.0400390625, 413.333251953125)"></g><g id="g-root-ic_1_18foho2lq7cp9-fill" data-item-order="8000000000" transform="translate(14.000030517578125, 208.5838623046875)"></g><g id="g-root-ic_1_18foho2lq7cp9-stroke" data-item-order="8000000000" transform="translate(14.000030517578125, 208.5838623046875)"><g id="ic_1_18foho2lq7cp9-stroke" fill="none" stroke-linecap="round" stroke-linejoin="round" stroke-miterlimit="4" stroke="#e45752" stroke-width="2" stroke-opacity="1"><g><path d="M 41.862732 49.449142C 42.99366 50.460175 44.46711 51.002682 45.983646 50.966415L 46.845455 50.966415C 48.362091 51.003296 49.835758 50.460709 50.96637 49.449142M 43.380005 37.310959C 42.725117 36.284927 41.559212 35.701981 40.345459 35.793686C 39.131702 35.701981 37.965797 36.284927 37.310913 37.310959M 55.518188 37.310959C 54.8633 36.284927 53.697395 35.701981 52.483643 35.793686C 51.269886 35.701981 50.103981 36.284927 49.449097 37.310959M 46.475243 60.070053C 50.684155 60.070053 60.100353 54.847599 61.44162 46.824261C 61.607357 45.827801 62.258072 44.979141 63.177383 44.56049C 66.442558 43.076595 67.267952 37.119781 64.621826 35.793686C 66.139099 26.732533 66.139099 11.517319 46.469173 11.517319C 26.799246 11.517319 26.814419 26.732533 28.319553 35.793686C 25.676464 37.119781 26.498825 43.076595 29.770065 44.56049C 30.689375 44.979141 31.34009 45.827801 31.505827 46.824261C 32.850132 54.847599 42.266327 60.070053 46.475243 60.070053ZM 27.746025 29.676043C 31.806246 29.585005 39.987381 30.826134 46.414551 23.094112C 52.872066 30.862549 61.195824 29.603212 65.207497 29.706387M 27.394016 42.002365C 26.676163 45.839149 24.554604 49.270859 21.443272 51.627945C 21.007866 51.888218 20.731331 52.348858 20.706333 52.855511C 20.681337 53.36216 20.911184 53.847786 21.318857 54.149654C 23.83745 56.113979 26.973534 57.116669 30.164557 56.977852M 65.559502 42.002365C 66.274864 45.840118 68.396942 49.272663 71.510246 51.627949C 71.945274 51.888756 72.221207 52.349693 72.245598 52.856323C 72.269981 53.362961 72.039597 53.84827 71.631622 54.149654C 69.113289 56.114464 65.977028 57.117207 62.785927 56.977852M 81.311829 81.311874L 81.311829 78.277328C 81.309296 73.214485 78.164627 68.684952 73.422005 66.912949L 57.205395 61.465942M 35.623707 61.465942L 19.407091 66.912949C 14.664474 68.684952 11.519803 73.214485 11.517273 78.277328L 11.517273 81.311874M 32.759094 62.427898L 32.759094 71.619537C 32.758488 72.107521 32.992626 72.56601 33.38829 72.851639C 33.783951 73.13726 34.292847 73.215149 34.755825 73.060944L 46.414551 69.173691L 35.623707 61.465942M 60.070007 62.427898L 60.070007 71.619537C 60.070614 72.107521 59.836475 72.56601 59.440811 72.851639C 59.045151 73.13726 58.536255 73.215149 58.073277 73.060944L 46.414551 69.173691L 57.205395 61.465942M 10 10.000046M 46.414551 81.311874L 46.414551 69.173691"></path></g></g></g><g id="g-root-tx_vahoxel66s5g-fill" data-item-order="8000000000" transform="translate(475.760009765625, 396.053466796875)"><g id="tx_vahoxel66s5g-fill-merged" stroke="none" fill="#f4f4f4" fill-opacity="1"><g><text style="font: 12px &quot;Source Code Pro&quot;, monospace; white-space: pre;" transform="translate(10, 33.666748046875)" font-size="12px" font-family="'Source Code Pro', monospace"><tspan x="2" y="7.67" dominant-baseline="ideographic">Swap</tspan></text></g></g></g><g id="g-root-tx_vahoxel66s5g-stroke" data-item-order="8000000000" transform="translate(475.760009765625, 396.053466796875)"></g><g id="g-root-ic_doub_vahoxel66rcw-fill" data-item-order="8000000000" transform="translate(350.00018310546875, 207.27978515625)"></g><g id="g-root-ic_doub_vahoxel66rcw-stroke" data-item-order="8000000000" transform="translate(350.00018310546875, 207.27978515625)"><g id="ic_doub_vahoxel66rcw-stroke" fill="none" stroke-linecap="round" stroke-linejoin="round" stroke-miterlimit="4" stroke="#efd80d" stroke-width="2" stroke-opacity="1"><g><path d="M 16.271313 34.04163C 16.271313 35.773422 17.675207 37.177315 19.407 37.177315C 21.138792 37.177315 22.542686 35.773422 22.542686 34.04163C 22.542686 32.309837 21.138792 30.905943 19.407 30.905943C 17.675207 30.905943 16.271313 32.309837 16.271313 34.04163ZM 27.218344 36.540424L 25.809376 35.726536C 26.099245 34.621967 26.099245 33.461292 25.809376 32.35672L 27.218344 31.542835C 27.551611 31.350407 27.665792 30.924255 27.473379 30.590979L 26.42815 28.779251C 26.235725 28.445982 25.80957 28.331802 25.476295 28.524214L 24.067327 29.336704C 23.255878 28.533751 22.250576 27.954285 21.149048 27.654583L 21.149048 26.026814C 21.149048 25.641972 20.837072 25.329994 20.452229 25.329994L 18.361771 25.329994C 17.976927 25.329994 17.664951 25.641972 17.664951 26.026814L 17.664951 27.653189C 16.563135 27.95369 15.557804 28.534132 14.746673 29.338099L 13.344672 28.527C 13.011396 28.334589 12.585243 28.448771 12.392817 28.782038L 11.347588 30.593767C 11.155175 30.927042 11.269357 31.353195 11.602623 31.545622L 13.011592 32.359509C 12.721723 33.464081 12.721723 34.624752 13.011592 35.729324L 11.602623 36.543209C 11.269357 36.735638 11.155175 37.161793 11.347588 37.495068L 12.392817 39.306793C 12.585243 39.64006 13.011396 39.754246 13.344672 39.561832L 14.75364 38.74934C 15.563449 39.550251 16.566204 40.128674 17.664951 40.428673L 17.664951 42.053658C 17.664951 42.438499 17.976927 42.750477 18.361771 42.750477L 20.452229 42.750477C 20.837072 42.750477 21.149048 42.438499 21.149048 42.053658L 21.149048 40.428673C 22.250864 40.128174 23.256195 39.547733 24.067327 38.743767L 25.476295 39.556259C 25.80957 39.748672 26.235725 39.634487 26.42815 39.30122L 27.473379 37.489491C 27.663898 37.156841 27.549942 36.732769 27.218344 36.540424ZM 30.904518 19.408424C 30.904518 21.140217 32.308411 22.544111 34.040207 22.544111C 35.771999 22.544111 37.175892 21.140217 37.175892 19.408424C 37.175892 17.676632 35.771999 16.272738 34.040207 16.272738C 32.308411 16.272738 30.904518 17.676632 30.904518 19.408424ZM 26.228861 16.90963L 27.637829 17.723515C 27.34796 18.828087 27.34796 19.988762 27.637829 21.093332L 26.228861 21.907217C 25.895594 22.099646 25.781412 22.525797 25.973825 22.859074L 27.019054 24.670803C 27.211479 25.00407 27.637634 25.118252 27.970909 24.925838L 29.379877 24.113348C 30.191326 24.916302 31.196629 25.495768 32.298157 25.795469L 32.298157 27.420452C 32.298157 27.805294 32.610134 28.117271 32.994976 28.117271L 35.085434 28.117271C 35.470276 28.117271 35.782253 27.805294 35.782253 27.420452L 35.782253 25.795469C 36.884068 25.49497 37.8894 24.914528 38.700531 24.110561L 40.109501 24.923052C 40.442776 25.115463 40.868931 25.001284 41.061356 24.668015L 42.106586 22.856287C 42.299 22.52301 42.184814 22.096859 41.851547 21.90443L 40.442581 21.093332C 40.732449 19.988762 40.732449 18.828087 40.442581 17.723515L 41.851547 16.90963C 42.184814 16.717203 42.299 16.29105 42.106586 15.957775L 41.061356 14.146044C 40.868931 13.812778 40.442776 13.698596 40.109501 13.891008L 38.700531 14.7035C 37.889084 13.900546 36.883778 13.321079 35.782253 13.021378L 35.782253 11.393608C 35.782253 11.008765 35.470276 10.696789 35.085434 10.696789L 32.994976 10.696789C 32.610134 10.696789 32.298157 11.008765 32.298157 11.393608L 32.298157 13.021378C 31.196341 13.321877 30.19101 13.90232 29.379877 14.706287L 27.977877 13.893796C 27.644602 13.701384 27.218449 13.815565 27.026022 14.148831L 25.980793 15.960562C 25.789085 16.291397 25.899786 16.714916 26.228861 16.90963Z"></path></g></g></g><g id="g-root-ic_hous_vahoxel66rcy-fill" data-item-order="8000000000" transform="translate(154.19003295898438, 226.350341796875)"></g><g id="g-root-ic_hous_vahoxel66rcy-stroke" data-item-order="8000000000" transform="translate(154.19003295898438, 226.350341796875)"><g id="ic_hous_vahoxel66rcy-stroke" fill="none" stroke-linecap="round" stroke-linejoin="round" stroke-miterlimit="4" stroke="#efd80d" stroke-width="2" stroke-opacity="1"><g><path d="M 34.835072 36.16209C 31.149233 38.464767 28.910641 42.504719 28.912352 46.850716M 23.84857 32.493092C 26.986378 34.332363 28.913673 37.697487 28.912354 41.334618M 13.940074 30.696419C 13.940074 33.525272 16.233315 35.818516 19.06217 35.818516C 21.891026 35.818516 24.184265 33.525272 24.184265 30.696421C 24.184265 27.867563 21.891026 25.574324 19.06217 25.574324C 16.233315 25.574324 13.940074 27.867563 13.940074 30.696421ZM 34.428455 34.242485C 34.428459 36.853737 36.545292 38.970573 39.156544 38.970573C 41.767796 38.970573 43.884632 36.853737 43.884632 34.242485C 43.884632 31.631235 41.767796 29.514399 39.156544 29.514399C 36.545292 29.514399 34.428459 31.631235 34.428459 34.242485ZM 24.184265 14.039363L 24.184265 22.422264C 24.184265 22.857471 24.537071 23.210279 24.972279 23.210279L 32.852428 23.210279C 33.287636 23.210279 33.640442 22.857471 33.640442 22.422264L 33.640442 14.039363M 20.244192 16.90616L 27.985647 11.276584C 28.53817 10.874929 29.286537 10.874929 29.839058 11.276584L 37.580513 16.90616M 28.912354 19.270205L 28.912354 46.850719"></path></g></g></g><g id="g-root-tx_vahoxel66rcz-fill" data-item-order="8000000000" transform="translate(223.19003295898438, 224.0032958984375)"><g id="tx_vahoxel66rcz-fill-merged" stroke="none" fill="#f4f4f4" fill-opacity="1"><g><text style="font: 12px &quot;Source Code Pro&quot;, monospace; white-space: pre;" transform="translate(9.999969482421875, 24.6666259765625)" font-size="12px" font-family="'Source Code Pro', monospace"><tspan x="2" y="0" dominant-baseline="ideographic">Indexed </tspan><tspan x="2" y="14" dominant-baseline="ideographic">gardens</tspan></text></g></g></g><g id="g-root-tx_vahoxel66rcz-stroke" data-item-order="8000000000" transform="translate(223.19003295898438, 224.0032958984375)"></g><g id="g-root-tx_vahoxel66rd0-fill" data-item-order="8000000000" transform="translate(368.1600341796875, 230)"><g id="tx_vahoxel66rd0-fill-merged" stroke="none" fill="#f4f4f4" fill-opacity="1"><g><text style="font: 10px &quot;Source Code Pro&quot;, monospace; white-space: pre;" transform="translate(10, 22)" font-size="10px" font-family="'Source Code Pro', monospace"><tspan x="2" y="0" dominant-baseline="ideographic">Rebalancing </tspan><tspan x="2" y="12" dominant-baseline="ideographic">Engine</tspan></text></g></g></g><g id="g-root-tx_vahoxel66rd0-stroke" data-item-order="8000000000" transform="translate(368.1600341796875, 230)"></g><g id="g-root-ic_hand_vahoxel66rd1-fill" data-item-order="8000000000" transform="translate(468.46002197265625, 234.4598388671875)"></g><g id="g-root-ic_hand_vahoxel66rd1-stroke" data-item-order="8000000000" transform="translate(468.46002197265625, 234.4598388671875)"><g id="ic_hand_vahoxel66rd1-stroke" fill="none" stroke-linecap="round" stroke-linejoin="round" stroke-miterlimit="4" stroke="#4e88e6" stroke-width="2" stroke-opacity="1"><g><path d="M 65.828789 22.499395C 66.48938 23.360754 66.48938 24.558329 65.828789 25.419689C 63.349758 28.670929 56.540844 36.209152 46.725838 36.209152C 36.910831 36.209152 30.098856 28.667866 27.619823 25.419689C 26.958166 24.558691 26.958166 23.360392 27.619823 22.499395C 30.098856 19.251219 36.907768 11.709935 46.725838 11.709935C 56.543911 11.709935 63.349758 19.251219 65.828789 22.499395ZM 46.725838 19.061232C 49.433643 19.061232 51.628746 21.256338 51.628746 23.964138C 51.628746 26.67194 49.433643 28.867046 46.725842 28.867046C 44.018036 28.867046 41.822933 26.67194 41.822933 23.964138C 41.822933 21.256338 44.018036 19.061232 46.725842 19.061232M 72.312881 69.432472L 57.015816 70.70723M 54.215031 51.368324L 43.529758 54.898418C 41.817165 55.464134 39.952942 54.65274 39.199879 53.013866C 38.384777 51.261143 39.105885 49.177795 40.830093 48.304008L 51.181355 43.094669C 52.964481 42.196285 55.040043 42.076477 56.914692 42.763721L 72.236275 48.368359M 42.408218 47.510349L 41.305061 46.591053C 39.50296 45.264843 37.143665 44.963562 35.066113 45.794331L 21.353294 51.279461M 12.108251 46.045605L 18.273657 46.045605C 19.903803 45.9781 21.281832 47.241066 21.356359 48.870907L 21.356359 68.641876C 21.281847 70.271271 19.903284 71.533363 18.273657 71.464119L 12.108251 71.464119M 81.435356 71.464119L 75.269951 71.464119C 73.640327 71.533363 72.261757 70.271271 72.187248 68.641876L 72.187248 48.870907C 72.26178 47.241066 73.639801 45.9781 75.269951 46.045609L 81.432297 46.045605M 49.983208 53.767685L 57.950432 64.707298C 58.95356 66.087585 59.043339 67.931122 58.179085 69.402344C 57.314831 70.873573 55.660862 71.692764 53.966824 71.488632C 53.551762 73.698662 51.488132 75.203758 49.256966 74.923729C 48.843277 77.134277 46.778111 78.639153 44.547112 78.355759C 44.216885 80.022949 42.933582 81.338005 41.27496 81.708878C 39.616341 82.079742 37.895161 81.436493 36.886318 80.068718L 28.848614 69.971794C 27.660141 68.46125 25.866554 67.55101 23.945707 67.483574L 21.353294 67.388573M 44.559368 78.355759L 42.408218 75.717384M 49.269222 74.923729L 47.427567 72.475342M 53.979076 71.488632L 51.96582 68.752197"></path></g></g></g><g id="g-root-tx_vahoxel66rd2-fill" data-item-order="8000000000" transform="translate(125.62002563476562, 242.003173828125)"><g id="tx_vahoxel66rd2-fill-merged" stroke="none" fill="#f4f4f4" fill-opacity="1"><g><text style="font: bold 12px &quot;Source Code Pro&quot;, monospace; white-space: pre;" transform="translate(10, 33.666748046875)" font-weight="bold" font-size="12px" font-family="'Source Code Pro', monospace"><tspan x="2" y="7.67" dominant-baseline="ideographic">Garden growth</tspan></text></g></g></g><g id="g-root-tx_vahoxel66rd2-stroke" data-item-order="8000000000" transform="translate(125.62002563476562, 242.003173828125)"></g><g id="g-root-tx_vahoxel66s5l-fill" data-item-order="8000000000" transform="translate(480.07000732421875, 500.663330078125)"><g id="tx_vahoxel66s5l-fill-merged" stroke="none" fill="#f4f4f4" fill-opacity="1"><g><text style="font: 12px &quot;Source Code Pro&quot;, monospace; white-space: pre;" transform="translate(10, 33.666748046875)" font-size="12px" font-family="'Source Code Pro', monospace"><tspan x="2" y="7.67" dominant-baseline="ideographic">Lend</tspan></text></g></g></g><g id="g-root-tx_vahoxel66s5l-stroke" data-item-order="8000000000" transform="translate(480.07000732421875, 500.663330078125)"></g><g id="g-root-tx_vahoxel66s5e-fill" data-item-order="8000000000" transform="translate(48.23004150390625, 374.333251953125)"><g id="tx_vahoxel66s5e-fill-merged" stroke="none" fill="#f4f4f4" fill-opacity="1"><g><text style="font: bold 12px &quot;Source Code Pro&quot;, monospace; white-space: pre;" transform="translate(10, 33.666748046875)" font-weight="bold" font-size="12px" font-family="'Source Code Pro', monospace"><tspan x="2" y="7.67" dominant-baseline="ideographic">Garden growth</tspan></text></g></g></g><g id="g-root-tx_vahoxel66s5e-stroke" data-item-order="8000000000" transform="translate(48.23004150390625, 374.333251953125)"></g><g id="g-root-ic_stac_vahoxel66rd7-fill" data-item-order="8000000000" transform="translate(139.48004150390625, 297.47021484375)"></g><g id="g-root-ic_stac_vahoxel66rd7-stroke" data-item-order="8000000000" transform="translate(139.48004150390625, 297.47021484375)"><g id="ic_stac_vahoxel66rd7-stroke" fill="none" stroke-linecap="round" stroke-linejoin="round" stroke-miterlimit="4" stroke="#efd80d" stroke-width="2" stroke-opacity="1"><g><path d="M 28.434828 26.417786L 26.230154 11.673051C 26.192051 11.449388 26.255039 11.220341 26.402149 11.047611C 26.55455 10.880136 26.769886 10.783801 26.996315 10.781799L 37.816422 10.781799M 32.343826 29.544983L 30.874043 14.768976C 30.849001 14.548454 30.916996 14.327473 31.061672 14.159172C 31.213034 14.001384 31.421566 13.911207 31.640203 13.908997L 43.945724 13.908997C 44.173004 13.907019 44.389893 14.004047 44.539894 14.174809C 44.687004 14.347538 44.749992 14.576585 44.711891 14.800248L 42.507217 29.544983M 41.725418 45.180969L 28.559916 45.180969C 27.960863 45.180908 27.367023 45.292252 26.808683 45.509323L 23.681488 46.744568M 28.434828 29.544983L 43.289017 29.544983L 44.274082 31.030401C 44.617729 31.552225 44.617729 32.228535 44.274082 32.750359L 43.789368 33.485252C 43.480457 33.952084 43.444679 34.548431 43.695549 35.048851L 44.508621 36.61245C 44.731636 37.055019 44.731636 37.577118 44.508621 38.019688L 43.586098 39.864735C 43.399139 40.232918 43.365414 40.66011 43.492283 41.05307L 43.758095 41.866138C 43.931122 42.416656 43.786869 43.017719 43.382832 43.429737L 41.725418 45.180969M 12.798841 37.362976L 18.052532 35.392841C 18.697285 35.14341 19.245235 34.694092 19.616131 34.110691L 24.776007 25.729803C 25.126938 25.152634 25.602386 24.66116 26.16761 24.291292L 27.934477 23.102957M 35.846287 22.117889C 35.846287 23.197329 36.721344 24.072388 37.800785 24.072388C 38.880222 24.072388 39.755283 23.197329 39.755283 22.117889C 39.755283 21.03845 38.880222 20.163391 37.800785 20.163391C 36.721344 20.163391 35.846287 21.03845 35.846287 22.117889"></path></g></g></g><g id="g-root-tx_vahoxel66rd8-fill" data-item-order="8000000000" transform="translate(143.19003295898438, 271.263427734375)"><g id="tx_vahoxel66rd8-fill-merged" stroke="none" fill="#f4f4f4" fill-opacity="1"><g><text style="font: bold 12px &quot;Source Code Pro&quot;, monospace; white-space: pre;" transform="translate(10, 26.666748046875)" font-weight="bold" font-size="12px" font-family="'Source Code Pro', monospace"><tspan x="2" y="7" dominant-baseline="ideographic">Funds</tspan></text></g></g></g><g id="g-root-tx_vahoxel66rd8-stroke" data-item-order="8000000000" transform="translate(143.19003295898438, 271.263427734375)"></g><g id="g-root-ic_hous_quo6syl66s5n-fill" data-item-order="8000000000" transform="translate(79.09002685546875, 354.180419921875)"></g><g id="g-root-ic_hous_quo6syl66s5n-stroke" data-item-order="8000000000" transform="translate(79.09002685546875, 354.180419921875)"><g id="ic_hous_quo6syl66s5n-stroke" fill="none" stroke-linecap="round" stroke-linejoin="round" stroke-miterlimit="4" stroke="#efd80d" stroke-width="2" stroke-opacity="1"><g><path d="M 34.835072 36.16209C 31.149233 38.464767 28.910641 42.504719 28.912352 46.850716M 23.84857 32.493092C 26.986378 34.332363 28.913673 37.697487 28.912354 41.334618M 13.940074 30.696419C 13.940074 33.525272 16.233315 35.818516 19.06217 35.818516C 21.891026 35.818516 24.184265 33.525272 24.184265 30.696421C 24.184265 27.867563 21.891026 25.574324 19.06217 25.574324C 16.233315 25.574324 13.940074 27.867563 13.940074 30.696421ZM 34.428455 34.242485C 34.428459 36.853737 36.545292 38.970573 39.156544 38.970573C 41.767796 38.970573 43.884632 36.853737 43.884632 34.242485C 43.884632 31.631235 41.767796 29.514399 39.156544 29.514399C 36.545292 29.514399 34.428459 31.631235 34.428459 34.242485ZM 24.184265 14.039363L 24.184265 22.422264C 24.184265 22.857471 24.537071 23.210279 24.972279 23.210279L 32.852428 23.210279C 33.287636 23.210279 33.640442 22.857471 33.640442 22.422264L 33.640442 14.039363M 20.244192 16.90616L 27.985647 11.276584C 28.53817 10.874929 29.286537 10.874929 29.839058 11.276584L 37.580513 16.90616M 28.912354 19.270205L 28.912354 46.850719"></path></g></g></g><g id="g-root-ic_down_quo6syl66s5l-fill" data-item-order="8000000000" transform="translate(403.94732666015625, 310.9984130859375)"></g><g id="g-root-ic_down_quo6syl66s5l-stroke" data-item-order="8000000000" transform="translate(403.94732666015625, 310.9984130859375)"><g id="ic_down_quo6syl66s5l-stroke" fill="none" stroke-linecap="round" stroke-linejoin="round" stroke-miterlimit="4" stroke="#efd80d" stroke-width="2" stroke-opacity="1"><g><path d="M 10 10M 24.375 35.625L 28.125 39.375L 31.875 35.625M 10 10M 28.125 39.375L 28.125 28.125M 10 10M 31.875 31.875L 35.625 28.125L 39.375 31.875M 10 10M 35.625 28.125L 35.625 39.375M 14.0625 15.9375C 14.0625 18.871513 16.440987 21.25 19.375 21.25C 22.309013 21.25 24.6875 18.871513 24.6875 15.9375C 24.6875 13.003488 22.309013 10.625 19.375 10.625C 16.440987 10.625 14.0625 13.003488 14.0625 15.9375ZM 24.375 31.875L 10.625 31.875C 10.624952 28.474312 12.595269 25.381618 15.677395 23.944544C 18.759521 22.507469 22.395121 22.986343 25.000002 25.172501"></path></g></g></g><g id="g-root-tx_vahoxel66rdb-fill" data-item-order="8000000000" transform="translate(480.07000732421875, 289.423095703125)"><g id="tx_vahoxel66rdb-fill-merged" stroke="none" fill="#f4f4f4" fill-opacity="1"><g><text style="font: 12px &quot;Source Code Pro&quot;, monospace; white-space: pre;" transform="translate(10, 33.666748046875)" font-size="12px" font-family="'Source Code Pro', monospace"><tspan x="2" y="7.67" dominant-baseline="ideographic">Borrrow</tspan></text></g></g></g><g id="g-root-tx_vahoxel66rdb-stroke" data-item-order="8000000000" transform="translate(480.07000732421875, 289.423095703125)"></g><g id="g-root-ic_meda_quo6syl66s5k-fill" data-item-order="8000000000" transform="translate(198.9200439453125, 329.0001220703125)"></g><g id="g-root-ic_meda_quo6syl66s5k-stroke" data-item-order="8000000000" transform="translate(198.9200439453125, 329.0001220703125)"><g id="ic_meda_quo6syl66s5k-stroke" fill="none" stroke-linecap="round" stroke-linejoin="round" stroke-miterlimit="4" stroke="#91bb39" stroke-width="2" stroke-opacity="1"><g><path d="M 53.3353 93.465523L 85.023476 93.465523C 87.997726 93.465523 90.408348 91.054535 90.408348 88.08065L 90.408348 39.153702C 90.408348 37.726528 89.841507 36.357872 88.832382 35.348389L 67.752403 14.268409C 66.742912 13.259578 65.374443 12.692741 63.94709 12.692436L 25.790026 12.692436C 22.857065 12.692436 20.405153 15.144348 20.405153 18.077309L 20.405153 36.502441M 90.408348 39.616798L 68.868858 39.616798C 67.440796 39.616798 66.071243 39.04945 65.061401 38.039604C 64.051559 37.029762 63.48399 35.660065 63.48399 34.231926L 63.48399 12.692436M 30.354818 74.464104C 38.426838 74.464989 44.970974 67.921585 44.970974 59.849564C 44.970974 51.777542 38.426838 45.234127 30.354818 45.23502C 22.282801 45.234127 15.738667 51.777542 15.738667 59.849564C 15.738667 67.921585 22.282801 74.464989 30.354818 74.464104M 19.24123 69.359962L 19.24123 93.456909L 30.367455 86.351753L 41.493679 93.456909L 41.493679 69.359962"></path></g></g></g><g id="g-root-ic_plan_quo6syl66s5m-fill" data-item-order="8000000000" transform="translate(466.53009033203125, 330)"></g><g id="g-root-ic_plan_quo6syl66s5m-stroke" data-item-order="8000000000" transform="translate(466.53009033203125, 330)"><g id="ic_plan_quo6syl66s5m-stroke" fill="none" stroke-linecap="round" stroke-linejoin="round" stroke-miterlimit="4" stroke="#4e88e6" stroke-width="2" stroke-opacity="1"><g><path d="M 15.415944 22.29937L 52.180748 22.29937C 52.180748 22.29937 54.76107 22.29937 54.76107 24.87969L 54.76107 47.35173C 54.76107 47.35173 54.76107 49.932049 52.180748 49.932049L 15.415944 49.932049C 15.415944 49.932049 12.835624 49.932049 12.835624 47.35173L 12.835624 24.87969C 12.835624 24.87969 12.835624 22.29937 15.415944 22.29937M 22.985394 22.29937L 26.838722 16.963404C 28.084658 15.137691 30.231625 14.142507 32.43005 14.37165L 36.157604 14.37165C 38.357048 14.142758 40.505013 15.137729 41.752747 16.963404L 45.606075 22.29937M 12.835624 33.733582L 29.125565 33.733582M 38.562599 33.733582L 54.852539 33.733582M 31.031267 31.770708L 36.561611 31.770708C 36.561611 31.770708 38.467316 31.770708 38.467316 33.676411L 38.467316 38.558819C 38.467316 38.558819 38.467316 40.464523 36.561611 40.464523L 31.031267 40.464523C 31.031267 40.464523 29.125565 40.464523 29.125565 38.558819L 29.125565 33.676411C 29.125565 33.676411 29.125565 31.770708 31.031267 31.770708M 59.201355 69.48455L 95.966156 69.48455C 95.966156 69.48455 98.546478 69.48455 98.546478 72.064873L 98.546478 94.536911C 98.546478 94.536911 98.546478 97.117233 95.966156 97.117233L 59.201355 97.117233C 59.201355 97.117233 56.621033 97.117233 56.621033 94.536911L 56.621033 72.064873C 56.621033 72.064873 56.621033 69.48455 59.201355 69.48455M 66.766991 69.48455L 70.620316 64.148582C 71.870094 62.325672 74.017067 61.33263 76.215462 61.560642L 79.943016 61.560642C 82.140541 61.331532 84.286919 62.324978 85.534348 64.148582L 89.387672 69.48455M 56.621033 80.918762L 72.910973 80.918762M 82.348007 80.918762L 98.637955 80.918762M 74.816681 78.95208L 80.347023 78.95208C 80.347023 78.95208 82.252724 78.95208 82.252724 80.85778L 82.252724 85.740189C 82.252724 85.740189 82.252724 87.645889 80.347023 87.645889L 74.816681 87.645889C 74.816681 87.645889 72.910973 87.645889 72.910973 85.740189L 72.910973 80.85778C 72.910973 80.85778 72.910973 78.95208 74.816681 78.95208M 92.875107 41.634624C 92.875107 32.688457 85.622803 25.436157 76.676636 25.436157L 69.053833 25.436157M 76.676636 17.805725L 69.053833 25.428532L 76.676636 33.051342M 18.552729 66.408752C 18.552729 75.354919 25.805031 82.607216 34.751198 82.607216L 42.374004 82.607216M 34.751198 90.222404L 42.374004 82.599594L 34.751198 74.976784"></path></g></g></g><g id="g-root-tx_userjour_vahoxel66qkn-fill" data-item-order="8000000000" transform="translate(124.13018798828125, 38)"><g id="tx_userjour_vahoxel66qkn-fill-merged" stroke="none" fill="#f4f4f4" fill-opacity="1"><g><text style="font: bold 25px Roboto, sans-serif; white-space: pre;" transform="translate(127.86981201171875, 25)" font-weight="bold" font-size="25px" font-family="Roboto, sans-serif"><tspan x="-115.87" y="15" dominant-baseline="ideographic">Wealth Management</tspan></text></g></g></g><g id="g-root-tx_userjour_vahoxel66qkn-stroke" data-item-order="8000000000" transform="translate(124.13018798828125, 38)"></g><g id="g-root-ic_down_vahoxel66s5c-fill" data-item-order="8000000000" transform="translate(403.94732666015625, 376.9984130859375)"></g><g id="g-root-ic_down_vahoxel66s5c-stroke" data-item-order="8000000000" transform="translate(403.94732666015625, 376.9984130859375)"><g id="ic_down_vahoxel66s5c-stroke" fill="none" stroke-linecap="round" stroke-linejoin="round" stroke-miterlimit="4" stroke="#efd80d" stroke-width="2" stroke-opacity="1"><g><path d="M 10 10M 24.375 35.625L 28.125 39.375L 31.875 35.625M 10 10M 28.125 39.375L 28.125 28.125M 10 10M 31.875 31.875L 35.625 28.125L 39.375 31.875M 10 10M 35.625 28.125L 35.625 39.375M 14.0625 15.9375C 14.0625 18.871513 16.440987 21.25 19.375 21.25C 22.309013 21.25 24.6875 18.871513 24.6875 15.9375C 24.6875 13.003488 22.309013 10.625 19.375 10.625C 16.440987 10.625 14.0625 13.003488 14.0625 15.9375ZM 24.375 31.875L 10.625 31.875C 10.624952 28.474312 12.595269 25.381618 15.677395 23.944544C 18.759521 22.507469 22.395121 22.986343 25.000002 25.172501"></path></g></g></g><g id="g-root-cn_quo6syl66s5r-fill" data-item-order="8000000002" transform="translate(291.0780029296875, 365.06396484375)"></g><g id="g-root-cn_quo6syl66s5r-stroke" data-item-order="8000000002" transform="translate(291.0780029296875, 365.06396484375)"><g id="cn_quo6syl66s5r-stroke" fill="none" stroke-linecap="round" stroke-linejoin="round" stroke-miterlimit="4" stroke="#b7b7b7" stroke-width="2" stroke-dasharray="5.0, 7.0" stroke-opacity="1"><style>.fillAsStrokeColor-mk-qtf8mql6845o { fill:#b7b7b7; }</style><g><path d="M 13.98 16.316641C 19.05 15.376641 24.13 14.456641 29.2 13.556641C 42.07 11.226641 54.97 10.826641 67.9 12.356641C 80.83 13.956641 93.27 17.386641 105.2 22.656641C 117.13 27.986641 128 34.956641 137.8 43.556641C 147.67 52.086641 156.03 61.926641 162.9 73.056641C 169.77 84.126641 174.83 95.956641 178.1 108.556641C 179.59 114.226641 181.06 119.856641 182.49 125.476641"></path><path d="M 11.9 16.456641L 17.5 10.656641L 19.8 18.356641Z" stroke-dasharray="none" class="fillAsStrokeColor-mk-qtf8mql6845o" fill="#b7b7b7"></path><path d="M 175.4 120.556641L 182.8 126.056641L 188.3 118.556641" stroke-dasharray="none"></path></g></g></g><g id="g-root-cn_quo6syl66s5p-fill" data-item-order="8000000002" transform="translate(291.0780029296875, 372.0791015625)"></g><g id="g-root-cn_quo6syl66s5p-stroke" data-item-order="8000000002" transform="translate(291.0780029296875, 372.0791015625)"><g id="cn_quo6syl66s5p-stroke" fill="none" stroke-linecap="round" stroke-linejoin="round" stroke-miterlimit="4" stroke="#b7b7b7" stroke-width="2" stroke-dasharray="5.0, 7.0" stroke-opacity="1"><style>.fillAsStrokeColor-mk-qtf8mql6845n { fill:#b7b7b7; }</style><g><path d="M 14 10.08L 94.7 11.8L 175.5 13.61"></path><path d="M 12 10L 19.1 6.2L 18.9 14.2Z" stroke-dasharray="none" class="fillAsStrokeColor-mk-qtf8mql6845n" fill="#b7b7b7"></path><path d="M 177.5 13.6L 170.4 17.5L 170.5 9.5Z" stroke-dasharray="none" class="fillAsStrokeColor-mk-qtf8mql6845n" fill="#b7b7b7"></path></g></g></g><g id="g-root-cn_vahoxel66rd9-fill" data-item-order="8000000002" transform="translate(51.080078125, 314.97021484375)"></g><g id="g-root-cn_vahoxel66rd9-stroke" data-item-order="8000000002" transform="translate(51.080078125, 314.97021484375)"><g id="cn_vahoxel66rd9-stroke" fill="none" stroke-linecap="round" stroke-linejoin="round" stroke-miterlimit="4" stroke="#b7b7b7" stroke-width="2" stroke-dasharray="5.0, 7.0" stroke-opacity="1"><style>.fillAsStrokeColor-mk-mdlqial684y0 { fill:#b7b7b7; }</style><g><path d="M 13.399969 12.11L 69.499969 47L 128.899969 84"></path><path d="M 11.699969 11.1L 19.799969 11.4L 15.499969 18.2Z" stroke-dasharray="none" class="fillAsStrokeColor-mk-mdlqial684y0" fill="#b7b7b7"></path></g></g></g><g id="g-root-cn_vahoxel66rd5-fill" data-item-order="8000000002" transform="translate(74, 298.0498046875)"></g><g id="g-root-cn_vahoxel66rd5-stroke" data-item-order="8000000002" transform="translate(74, 298.0498046875)"><g id="cn_vahoxel66rd5-stroke" fill="none" stroke-linecap="round" stroke-linejoin="round" stroke-miterlimit="4" stroke="#b7b7b7" stroke-width="2" stroke-dasharray="5.0, 7.0" stroke-opacity="1"><style>.fillAsStrokeColor-mk-mdlqial684xz { fill:#b7b7b7; }</style><g><path d="M 10.000031 10L 69.500031 47L 125.500031 81.89"></path><path d="M 127.200031 83L 119.200031 82.7L 123.400031 75.9Z" stroke-dasharray="none" class="fillAsStrokeColor-mk-mdlqial684xz" fill="#b7b7b7"></path></g></g></g><g id="g-root-sk_quo6syl66rdb-fill" data-item-order="8000000002" transform="translate(298.18634033203125, 197.10546875)"></g><g id="g-root-sk_quo6syl66rdb-stroke" data-item-order="8000000002" transform="translate(298.18634033203125, 197.10546875)"><g id="sk_quo6syl66rdb-stroke" fill="none" stroke-linecap="butt" stroke-linejoin="miter" stroke-miterlimit="4" stroke="#b7b7b7" stroke-width="2" stroke-dasharray="5.0, 7.0" stroke-opacity="1"><style>.fillAsStrokeColor-mk-92584yl686iy { fill:#b7b7b7; }</style><g><path d="M 14 10L 86.9 10L 163.9 10"></path><path d="M 12 10L 19 6L 19 14Z" stroke-dasharray="none" class="fillAsStrokeColor-mk-92584yl686iy" fill="#b7b7b7"></path></g></g></g><g id="g-root-sk_quo6syl66rda-fill" data-item-order="8000000002" transform="translate(102.13375854492188, 194)"></g><g id="g-root-sk_quo6syl66rda-stroke" data-item-order="8000000002" transform="translate(102.13375854492188, 194)"><g id="sk_quo6syl66rda-stroke" fill="none" stroke-linecap="butt" stroke-linejoin="miter" stroke-miterlimit="4" stroke="#b7b7b7" stroke-width="2" stroke-dasharray="5.0, 7.0" stroke-opacity="1"><style>.fillAsStrokeColor-mk-hxs8dul685q9 { fill:#b7b7b7; }</style><g><path d="M 13.49 66.14L 61.8 39L 113.7 10"></path><path d="M 11.7 67.1L 15.9 60.2L 19.8 67.1Z" stroke-dasharray="none" class="fillAsStrokeColor-mk-hxs8dul685q9" fill="#b7b7b7"></path></g></g></g><g id="g-root-cn_quo6syl66rd8-fill" data-item-order="8000000002" transform="translate(299.26800537109375, 174.66162109375)"></g><g id="g-root-cn_quo6syl66rd8-stroke" data-item-order="8000000002" transform="translate(299.26800537109375, 174.66162109375)"><g id="cn_quo6syl66rd8-stroke" fill="none" stroke-linecap="round" stroke-linejoin="round" stroke-miterlimit="4" stroke="#b7b7b7" stroke-width="2" stroke-dasharray="5.0, 7.0" stroke-opacity="1"><style>.fillAsStrokeColor-mk-mdlqial684xy { fill:#b7b7b7; }</style><g><path d="M 10 10.3L 89.3 10.1L 164.7 10.01"></path><path d="M 166.7 10L 159.7 14L 159.7 6Z" stroke-dasharray="none" class="fillAsStrokeColor-mk-mdlqial684xy" fill="#b7b7b7"></path></g></g></g><g id="g-root-cn_quo6syl66rd5-fill" data-item-order="8000000002" transform="translate(100.18572998046875, 174.9189453125)"></g><g id="g-root-cn_quo6syl66rd5-stroke" data-item-order="8000000002" transform="translate(100.18572998046875, 174.9189453125)"><g id="cn_quo6syl66rd5-stroke" fill="none" stroke-linecap="round" stroke-linejoin="round" stroke-miterlimit="4" stroke="#b7b7b7" stroke-width="2" stroke-dasharray="5.0, 7.0" stroke-opacity="1"><style>.fillAsStrokeColor-mk-mdlqial684xx { fill:#b7b7b7; }</style><g><path d="M 10 65.1L 60.5 37.5L 107.39 11.92"></path><path d="M 109.2 11L 104.9 17.8L 101.1 10.8Z" stroke-dasharray="none" class="fillAsStrokeColor-mk-mdlqial684xx" fill="#b7b7b7"></path></g></g></g><g id="g-root-cn_vahoxel66rd3-fill" data-item-order="8000000002" transform="translate(291.07794189453125, 271.2314453125)"></g><g id="g-root-cn_vahoxel66rd3-stroke" data-item-order="8000000002" transform="translate(291.07794189453125, 271.2314453125)"><g id="cn_vahoxel66rd3-stroke" fill="none" stroke-linecap="round" stroke-linejoin="round" stroke-miterlimit="4" stroke="#b7b7b7" stroke-width="2" stroke-dasharray="5.0, 7.0" stroke-opacity="1"><style>.fillAsStrokeColor-mk-zofrsil686iq { fill:#b7b7b7; }</style><g><path d="M 13.950061 111.57C 18.770061 112.5 23.580061 113.41 28.400061 114.3C 40.670061 116.63 53.030061 117.17 65.500061 115.9C 77.900061 114.63 89.900061 111.63 101.500061 106.9C 113.030061 102.17 123.700061 95.9 133.500061 88.1C 143.230061 80.23 151.670061 71.2 158.800061 61C 165.930061 50.73 171.500061 39.67 175.500061 27.8C 177.020061 23.14 178.560061 18.48 180.120061 13.82"></path><path d="M 11.900061 111.4L 19.800061 109.5L 17.500061 117.2Z" stroke-dasharray="none" class="fillAsStrokeColor-mk-zofrsil686iq" fill="#b7b7b7"></path><path d="M 180.900061 12L 183.300061 19.7L 175.500061 17.9Z" stroke-dasharray="none" class="fillAsStrokeColor-mk-zofrsil686iq" fill="#b7b7b7"></path></g></g></g></g></g><path id="w93ddvmi49tz7" d="M65.283 12.757a.35.35 0 0 0 .584.157l5.203-5.141-6.183 3.523.396 1.461zm-2.216-11.7a.35.35 0 0 0-.522.305v3.111l3.276-1.868-2.754-1.548zm3.728 2.105l-4.25 2.421v2.445l6.391-3.644-2.141-1.222zm4.708 3.303a.35.35 0 0 0 0-.609l-1.592-.9-7.365 4.199v1.782a.35.35 0 0 0 .523.305l8.435-4.777z M44.542 2.513c0-.433.355-.783.792-.783s.792.35.792.783-.355.783-.792.783-.792-.35-.792-.783zm59.171 0c0-.433.355-.783.792-.783s.792.35.792.783-.355.783-.792.783-.792-.35-.792-.783zm-85.951 7.636h-1.27v-.487c-.276.201-.864.609-1.881.609-1.202 0-2.274-.794-2.137-2.078.118-1.106 1.153-1.584 1.848-1.727l2.17-.345c0-.539-.29-.956-1.064-1.006s-1.21.305-1.571 1.017l-1.124-.605c1.218-2.631 5.029-1.764 5.029.414v4.207zm-1.27-2.86c.006.396-.062 1.112-.819 1.59-.587.37-1.841.299-1.903-.395-.049-.555.461-.791.906-.898l1.816-.297zm72.662 2.86h-1.27v-.487c-.276.201-.864.609-1.881.609-1.202 0-2.274-.794-2.137-2.078.118-1.106 1.153-1.584 1.848-1.727l2.17-.345c0-.539-.29-.956-1.064-1.006s-1.21.305-1.571 1.017l-1.124-.605c1.218-2.631 5.029-1.764 5.029.414v4.207zm-1.27-2.86c.006.396-.062 1.112-.82 1.59-.587.37-1.841.299-1.903-.395-.049-.555.461-.791.906-.898l1.816-.297zM99.096 10.149H97.85v-8.45h1.246v4.895l2.68-2.559h1.738l-2.633 2.535 2.715 3.578h-1.556l-2.077-2.707-.867.844v1.863zm6.053-6.114h-1.255v6.113h1.255V4.035zm-59.2 0h-1.255v6.113h1.255V4.035zm5.584 6.113V1.697h1.255v2.695c.361-.346 1-.485 1.47-.485 1.452 0 2.477 1.082 2.457 2.448v3.792h-1.27v-3.68c0-.408-.214-1.339-1.315-1.339-.968 0-1.342.756-1.342 1.339v3.681h-1.255zm-4.76-4.894V4.039h.621a.45.45 0 0 0 .45-.45v-.855h1.251v1.305h1.309v1.215h-1.309v3.109c0 .293.105.664.648.664.365 0 .531-.035.736-.07v1.137s-.361.113-.857.113c-1.398 0-1.777-1.051-1.777-1.788V5.254h-1.071zM36.528 4.039h-1.394l2.191 6.106h1.125l1.234-3.918 1.238 3.918h1.129l2.188-6.106h-1.383l-1.359 3.93-1.256-3.93h-1.124l-1.242 3.957-1.348-3.957zM26.212 7.141c-.02 1.566 1.187 3.129 3.223 3.129 1.566 0 2.383-.918 2.734-1.719L31.172 8c-.315.399-.801 1.094-1.738 1.094-1.145 0-1.825-.781-1.891-1.52h4.625c.074-.284.148-.995-.03-1.559-.336-1.064-1.221-2.102-2.839-2.102s-3.088 1.152-3.088 3.227zm1.363-.75h3.348c-.055-.43-.566-1.301-1.623-1.301a1.79 1.79 0 0 0-1.725 1.301zm-8.758.75c.038 1.758 1.277 3.133 3.145 3.133 1.074 0 1.723-.477 1.961-.672v.547h1.242V1.703h-1.258v2.888c-.414-.36-1.062-.68-1.93-.68-1.91 0-3.198 1.473-3.16 3.23zm1.309-.08c0 1.119.723 1.978 1.836 1.978a1.88 1.88 0 0 0 1.94-1.904c0-1.371-1.011-1.99-1.972-1.99s-1.805.798-1.805 1.916zm76.683-.028C96.771 5.275 95.532 3.9 93.664 3.9c-1.074 0-1.723.477-1.961.672v-.547h-1.242v8.22h1.258V9.583c.414.36 1.063.68 1.93.68 1.91 0 3.198-1.473 3.16-3.23zm-1.309.08c0-1.119-.723-1.978-1.836-1.978a1.88 1.88 0 0 0-1.94 1.904c0 1.371 1.011 1.99 1.972 1.99S95.5 8.231 95.5 7.113zM106.441 10.173V4.036h1.254v.382c.361-.346 1-.485 1.47-.485 1.452 0 2.477 1.082 2.457 2.448v3.792h-1.27V6.492c0-.408-.214-1.339-1.315-1.339-.969 0-1.342.756-1.342 1.339v3.681h-1.254zm-30.383-.021V1.824h1.084l4.215 5.777V1.824h1.32v8.328h-1.094l-4.207-5.796v5.796h-1.319zM5.24 10.149H4V2.377h1.014l2.664 3.597 2.654-3.592h1.03v7.766h-1.256V4.762L7.678 8.068 5.24 4.742v5.407z" transform="translate(20, 571.996826171875)" fill="#acacac88" stroke="none"></path></svg>